<svg width="20" height="20" viewBox="0 0 17 17" fill="none" xmlns="http://www.w3.org/2000/svg">
<path d="M8.4999 0.944336C7.00555 0.944336 5.54476 1.38746 4.30225 2.21768C3.05975 3.04789 2.09133 4.22791 1.51947 5.60851C0.94761 6.9891 0.797984 8.50827 1.08952 9.97391C1.38105 11.4395 2.10065 12.7858 3.15731 13.8425C4.21397 14.8991 5.56025 15.6187 7.02588 15.9103C8.49151 16.2018 10.0107 16.0522 11.3913 15.4803C12.7719 14.9085 13.9519 13.94 14.7821 12.6975C15.6123 11.455 16.0555 9.99424 16.0555 8.49989C16.0555 6.49603 15.2594 4.57425 13.8425 3.15731C12.4255 1.74037 10.5038 0.944336 8.4999 0.944336ZM8.39601 13.1513C8.2419 13.1513 8.09126 13.1056 7.96312 13.02C7.83499 12.9344 7.73512 12.8127 7.67615 12.6703C7.61718 12.5279 7.60175 12.3712 7.63181 12.2201C7.66188 12.069 7.73608 11.9301 7.84505 11.8212C7.95402 11.7122 8.09285 11.638 8.244 11.6079C8.39514 11.5779 8.55181 11.5933 8.69418 11.6523C8.83655 11.7112 8.95824 11.8111 9.04386 11.9392C9.12947 12.0674 9.17517 12.218 9.17517 12.3721C9.17517 12.5788 9.09308 12.7769 8.94696 12.9231C8.80084 13.0692 8.60265 13.1513 8.39601 13.1513ZM9.04295 9.34517V10.1574C9.04196 10.3226 8.97782 10.4811 8.86368 10.6005C8.74953 10.72 8.59404 10.7912 8.42906 10.7996H8.37712C8.29362 10.8028 8.21033 10.7894 8.13204 10.7601C8.05376 10.7309 7.98203 10.6865 7.92101 10.6294C7.85998 10.5724 7.81086 10.5038 7.77649 10.4276C7.74211 10.3515 7.72316 10.2692 7.72073 10.1857V8.88239C7.71294 8.80668 7.72062 8.73018 7.74329 8.65753C7.76596 8.58488 7.80315 8.51759 7.85261 8.45975C7.90206 8.4019 7.96275 8.3547 8.031 8.32102C8.09924 8.28733 8.17362 8.26786 8.24962 8.26378C8.99101 8.20711 10.2235 7.93322 10.2235 6.72906C10.2235 5.86489 9.55767 5.27934 8.60378 5.27934C8.24218 5.28531 7.88614 5.36943 7.5601 5.52593C7.23406 5.68242 6.94573 5.9076 6.7149 6.186C6.62759 6.27877 6.51467 6.34348 6.39049 6.3719C6.26631 6.40032 6.13649 6.39116 6.01753 6.3456C5.89856 6.30004 5.79584 6.22013 5.72241 6.11604C5.64899 6.01194 5.60818 5.88836 5.60517 5.761C5.60796 5.58298 5.68094 5.41326 5.80823 5.28878C6.15892 4.88278 6.59437 4.55863 7.0839 4.33916C7.57344 4.11968 8.10514 4.01023 8.64156 4.0185C10.3888 4.0185 11.6071 5.10461 11.6071 6.66295C11.6071 8.10322 10.6768 9.06656 9.04295 9.34517Z" fill="#0034BB"/>
</svg>
