<svg fill="none" height="36" viewBox="0 0 36 36" width="36" xmlns="http://www.w3.org/2000/svg"><path clip-rule="evenodd" d="m14.1084 8.05451c0-.58239-.4721-1.05451-1.0545-1.05451s-1.0545.47212-1.0545 1.05451v.8908h-.9996c-2.23922 0-4.05449 1.81529-4.05449 4.05449v12c0 2.2393 1.81527 4.0545 4.05449 4.0545h13c2.2393 0 4.0545-1.8152 4.0545-4.0545v-12c0-2.2392-1.8152-4.05449-4.0545-4.05449h-.8914v-.8908c0-.58239-.4721-1.05451-1.0545-1.05451s-1.0545.47212-1.0545 1.05451v.8908h-6.891zm-5.05406 4.94529c0-1.0744.87102-1.9455 1.94546-1.9455h13c1.0745 0 1.9455.8711 1.9455 1.9455v1.8913h-16.89079-.00017zm0 4.0003v7.9997c0 1.0745.87102 1.9455 1.94546 1.9455h13c1.0745 0 1.9455-.871 1.9455-1.9455v-7.9997h-16.89079zm3.44546 3.0542c.3063 0 .5545-.2482.5545-.5545 0-.3062-.2482-.5545-.5545-.5545-.3062 0-.5545.2483-.5545.5545 0 .3063.2483.5545.5545.5545zm-1.5545-.5545c0-.8585.696-1.5545 1.5545-1.5545.8586 0 1.5545.696 1.5545 1.5545 0 .8586-.6959 1.5545-1.5545 1.5545-.8585 0-1.5545-.6959-1.5545-1.5545zm2.109 4c0 .3063-.2482.5545-.5545.5545-.3062 0-.5545-.2482-.5545-.5545 0-.3062.2483-.5545.5545-.5545.3063 0 .5545.2483.5545.5545zm-.5545-1.5545c-.8585 0-1.5545.696-1.5545 1.5545 0 .8586.696 1.5545 1.5545 1.5545.8586 0 1.5545-.6959 1.5545-1.5545 0-.8585-.6959-1.5545-1.5545-1.5545zm5-1.891c.3063 0 .5545-.2482.5545-.5545 0-.3062-.2482-.5545-.5545-.5545-.3062 0-.5545.2483-.5545.5545 0 .3063.2483.5545.5545.5545zm-1.5545-.5545c0-.8585.696-1.5545 1.5545-1.5545.8586 0 1.5545.696 1.5545 1.5545 0 .8586-.6959 1.5545-1.5545 1.5545-.8585 0-1.5545-.6959-1.5545-1.5545zm2.109 4c0 .3063-.2482.5545-.5545.5545-.3062 0-.5545-.2482-.5545-.5545 0-.3062.2483-.5545.5545-.5545.3063 0 .5545.2483.5545.5545zm-.5545-1.5545c-.8585 0-1.5545.696-1.5545 1.5545 0 .8586.696 1.5545 1.5545 1.5545.8586 0 1.5545-.6959 1.5545-1.5545 0-.8585-.6959-1.5545-1.5545-1.5545zm5-1.891c.3063 0 .5545-.2482.5545-.5545 0-.3062-.2482-.5545-.5545-.5545-.3062 0-.5545.2483-.5545.5545 0 .3063.2483.5545.5545.5545zm-1.5545-.5545c0-.8585.696-1.5545 1.5545-1.5545.8586 0 1.5545.696 1.5545 1.5545 0 .8586-.6959 1.5545-1.5545 1.5545-.8585 0-1.5545-.6959-1.5545-1.5545zm2.109 4c0 .3063-.2482.5545-.5545.5545-.3062 0-.5545-.2482-.5545-.5545 0-.3062.2483-.5545.5545-.5545.3063 0 .5545.2483.5545.5545zm-.5545-1.5545c-.8585 0-1.5545.696-1.5545 1.5545 0 .8586.696 1.5545 1.5545 1.5545.8586 0 1.5545-.6959 1.5545-1.5545 0-.8585-.6959-1.5545-1.5545-1.5545z" fill="#000" fill-rule="evenodd"/></svg>