<svg width="786" height="764" viewBox="0 0 786 764" fill="none" xmlns="http://www.w3.org/2000/svg">
<path d="M377.38 11.168C379.083 7.04986 384.917 7.04985 386.62 11.168L397.228 36.8086C398.828 40.6768 404.189 40.9834 406.22 37.3228L419.682 13.0585C421.844 9.16143 427.639 9.82634 428.862 14.1118L436.477 40.7944C437.626 44.8199 442.918 45.7356 445.353 42.3304L461.492 19.7587C464.084 16.1335 469.766 17.4547 470.492 21.8517L475.017 49.2285C475.699 53.3587 480.852 54.8716 483.659 51.7661L502.266 31.1813C505.255 27.8752 510.749 29.8354 510.969 34.2866L512.344 62.0007C512.551 66.1818 517.497 68.2722 520.64 65.5069L541.473 47.1774C544.819 44.2335 550.053 46.8072 549.765 51.2545L547.971 78.9446C547.701 83.1221 552.376 85.7627 555.814 83.3737L578.6 67.5383C582.26 64.995 587.167 68.1487 586.374 72.5341L581.435 99.8393C580.69 103.959 585.034 107.115 588.722 105.134L613.165 91.9988C617.09 89.8893 621.606 93.5817 620.318 97.8482L612.299 124.412C611.089 128.42 615.046 132.051 618.935 130.503L644.715 120.24C648.856 118.592 652.921 122.775 651.155 126.867L640.161 152.343C638.502 156.187 642.019 160.245 646.059 159.151L672.841 151.893C677.143 150.728 680.705 155.347 678.484 159.211L664.657 183.269C662.571 186.898 665.602 191.331 669.741 190.704L697.176 186.547C701.582 185.879 704.594 190.874 701.948 194.46L685.468 216.784C682.982 220.152 685.488 224.902 689.671 224.751L717.401 223.748C721.855 223.587 724.278 228.893 721.24 232.154L702.323 252.454C699.469 255.517 701.417 260.521 705.591 260.847L733.254 263.013C737.698 263.36 739.5 268.908 736.11 271.801L715.002 289.812C711.818 292.53 713.183 297.724 717.292 298.524L744.528 303.828C748.903 304.68 750.061 310.397 746.364 312.884L723.34 328.373C719.867 330.709 720.631 336.025 724.622 337.288L751.076 345.663C755.325 347.008 755.824 352.819 751.867 354.869L727.228 367.632C723.511 369.558 723.665 374.926 727.486 376.636L752.813 387.971C756.881 389.792 756.714 395.622 752.549 397.208L726.616 407.079C722.703 408.568 722.244 413.919 725.845 416.053L749.715 430.202C753.549 432.474 752.719 438.248 748.4 439.348L721.511 446.199C717.454 447.232 716.388 452.495 719.722 455.026L741.824 471.804C745.373 474.498 743.89 480.14 739.474 480.741L711.98 484.482C707.832 485.046 706.172 490.153 709.196 493.048L729.241 512.235C732.461 515.317 730.344 520.753 725.889 520.846L698.147 521.428C693.961 521.516 691.731 526.401 694.405 529.622L712.132 550.969C714.979 554.397 712.257 559.556 707.82 559.141L680.192 556.558C676.024 556.168 673.251 560.766 675.541 564.271L690.719 587.5C693.157 591.231 689.865 596.046 685.504 595.128L658.351 589.411C654.254 588.549 650.975 592.801 652.85 596.544L665.282 621.352C667.278 625.336 663.458 629.744 659.231 628.335L632.906 619.561C628.935 618.237 625.192 622.088 626.629 626.02L636.151 652.083C637.681 656.269 633.383 660.213 629.343 658.331L604.191 646.613C600.396 644.846 596.239 648.245 597.218 652.315L603.707 679.294C604.75 683.627 600.031 687.055 596.232 684.725L572.579 670.216C569.01 668.028 564.493 670.931 565.002 675.086L568.373 702.629C568.915 707.052 563.836 709.921 560.327 707.172L538.482 690.062C535.187 687.481 530.368 689.85 530.399 694.036L530.61 721.784C530.643 726.24 525.27 728.511 522.098 725.381L502.346 705.892C499.366 702.952 494.308 704.756 493.863 708.919L490.909 736.509C490.434 740.94 484.837 742.584 482.042 739.112L464.641 717.499C462.015 714.238 456.785 715.455 455.868 719.539L449.788 746.613C448.811 750.961 443.063 751.956 440.683 748.189L425.858 724.732C423.621 721.194 418.286 721.806 416.91 725.759L407.783 751.963C406.317 756.172 400.494 756.505 398.558 752.491L386.504 727.498C384.685 723.727 379.315 723.727 377.496 727.498L365.442 752.491C363.506 756.505 357.683 756.172 356.217 751.963L347.09 725.759C345.714 721.806 340.379 721.194 338.142 724.732L323.317 748.189C320.937 751.956 315.189 750.961 314.212 746.613L308.132 719.539C307.215 715.455 301.985 714.238 299.359 717.499L281.958 739.112C279.163 742.584 273.566 740.94 273.091 736.509L270.137 708.919C269.692 704.756 264.634 702.952 261.654 705.892L241.902 725.381C238.73 728.511 233.357 726.24 233.39 721.784L233.601 694.036C233.632 689.85 228.813 687.481 225.518 690.062L203.673 707.172C200.164 709.921 195.085 707.052 195.627 702.629L198.998 675.086C199.507 670.931 194.99 668.028 191.421 670.216L167.768 684.725C163.969 687.055 159.25 683.627 160.293 679.294L166.782 652.315C167.761 648.245 163.604 644.846 159.809 646.613L134.657 658.331C130.617 660.213 126.319 656.269 127.849 652.083L137.371 626.02C138.808 622.088 135.065 618.237 131.094 619.561L104.769 628.335C100.542 629.744 96.7216 625.336 98.7182 621.352L111.15 596.544C113.025 592.801 109.746 588.549 105.649 589.411L78.4965 595.128C74.1354 596.046 70.843 591.231 73.2807 587.5L88.4589 564.271C90.7488 560.766 87.9757 556.168 83.8076 556.558L56.18 559.141C51.7428 559.556 49.0207 554.397 51.8678 550.969L69.595 529.622C72.2694 526.401 70.0386 521.516 65.8533 521.428L38.1113 520.846C33.6556 520.753 31.5393 515.317 34.7587 512.235L54.8037 493.048C57.8278 490.153 56.1684 485.046 52.0204 484.482L24.5255 480.741C20.1096 480.14 18.6267 474.498 22.1764 471.804L44.278 455.026C47.6123 452.495 46.5459 447.232 42.4893 446.199L15.6 439.348C11.2814 438.248 10.4512 432.474 14.285 430.202L38.155 416.053C41.7561 413.919 41.2966 408.568 37.3842 407.079L11.4512 397.208C7.28605 395.622 7.11948 389.792 11.1873 387.971L36.5145 376.636C40.3355 374.926 40.4888 369.558 36.7717 367.632L12.1329 354.869C8.17569 352.82 8.67485 347.008 12.9237 345.663L39.3779 337.288C43.369 336.025 44.1332 330.709 40.6598 328.373L17.6365 312.884C13.9387 310.397 15.0971 304.68 19.4715 303.828L46.708 298.524C50.817 297.724 52.1822 292.53 48.9978 289.812L27.8901 271.801C24.5 268.908 26.3025 263.36 30.7455 263.013L58.4091 260.847C62.5826 260.521 64.5309 255.517 61.677 252.454L42.76 232.154C39.7218 228.893 42.1449 223.587 46.5986 223.748L74.3287 224.751C78.5122 224.902 81.0182 220.152 78.532 216.784L62.0525 194.46C59.4057 190.874 62.4179 185.879 66.8242 186.547L94.2592 190.704C98.3982 191.331 101.429 186.898 99.3433 183.269L85.516 159.211C83.2952 155.347 86.8571 150.728 91.1586 151.893L117.941 159.151C121.981 160.245 125.498 156.187 123.839 152.343L112.845 126.867C111.079 122.775 115.144 118.592 119.285 120.24L145.065 130.503C148.954 132.051 152.911 128.42 151.701 124.412L143.682 97.8482C142.394 93.5817 146.91 89.8893 150.835 91.9988L175.278 105.134C178.966 107.115 183.31 103.959 182.565 99.8393L177.626 72.5341C176.833 68.1487 181.74 64.9951 185.4 67.5384L208.186 83.3737C211.624 85.7627 216.299 83.1221 216.029 78.9446L214.235 51.2544C213.947 46.8071 219.181 44.2335 222.527 47.1774L243.36 65.5069C246.503 68.2722 251.449 66.1818 251.656 62.0007L253.031 34.2866C253.251 29.8354 258.745 27.8752 261.734 31.1813L280.341 51.7661C283.148 54.8716 288.301 53.3587 288.983 49.2285L293.508 21.8517C294.234 17.4547 299.916 16.1335 302.508 19.7587L318.647 42.3304C321.082 45.7356 326.374 44.8199 327.523 40.7945L335.138 14.1118C336.361 9.82636 342.156 9.16142 344.318 13.0585L357.78 37.3228C359.811 40.9834 365.172 40.6768 366.772 36.8086L377.38 11.168Z" fill="black"/>
<path d="M71.9213 300.431L59.6861 331.529C57.9868 336.287 56.4574 341.215 55.0979 346.313C53.7385 351.411 52.2941 355.83 50.7647 359.568C49.2353 363.477 46.8562 366.535 43.6275 368.745C40.5687 370.954 37.085 372.568 33.1766 373.588C29.2681 374.777 25.1897 375.287 20.9414 375.117C16.863 374.947 13.2094 374.182 9.9807 372.823C2.67357 369.424 0.124573 363.816 2.3337 356C10.1506 321.673 17.4578 294.144 24.2551 273.412C31.2223 252.68 36.9151 236.367 41.3334 224.471C45.9216 212.576 50.6797 200.001 55.6077 186.746C56.1175 181.818 58.1567 177.4 61.7253 173.491C65.2939 169.583 69.4573 166.354 74.2154 163.805C79.1435 161.256 84.2415 159.472 89.5094 158.452C94.7773 157.263 99.4505 157.093 103.529 157.942C107.607 158.792 110.581 160.661 112.45 163.55C114.49 166.439 114.66 170.602 112.96 176.04C106.843 191.674 102.509 202.72 99.9603 209.177C97.4113 215.635 95.1172 221.412 93.078 226.51L85.9408 243.334C89.5094 243.504 94.0126 242.994 99.4505 241.804C109.307 239.595 116.444 238.831 120.862 239.51C120.862 238.661 121.287 237.216 122.137 235.177C126.895 214.445 132.248 195.413 138.195 178.08C142.444 163.805 153.404 156.328 171.077 155.648C178.045 155.648 183.312 157.348 186.881 160.746C190.79 164.315 191.299 169.158 188.411 175.276C172.777 219.118 161.731 253.7 155.274 279.02C147.966 308.248 143.123 327.961 140.744 338.157C138.535 348.353 136.581 354.385 134.882 356.254C133.182 358.124 131.398 359.398 129.529 360.078C127.829 360.928 126.13 361.692 124.431 362.372C122.731 363.052 121.372 364.751 120.352 367.47H119.588C118.228 370.529 115.254 372.908 110.666 374.607C106.078 376.307 101.405 376.901 96.6466 376.392C92.0584 376.052 88.1499 374.352 84.9212 371.294C81.8624 368.405 81.0977 363.901 82.6271 357.784C84.3265 348.098 87.1303 337.732 91.0388 326.686C94.9473 315.47 98.0061 306.719 100.215 300.431C102.594 294.144 104.549 288.281 106.078 282.843C104.718 283.523 103.359 284.033 102 284.373C100.81 284.713 99.2806 285.392 97.4113 286.412C95.542 287.262 93.5878 288.026 91.5486 288.706C89.6794 289.386 87.8101 290.065 85.9408 290.745C81.1827 292.614 77.2742 294.484 74.2154 296.353L71.9213 300.431ZM100.725 283.353C100.895 283.353 101.745 283.098 103.274 282.588C102.254 282.928 101.405 283.183 100.725 283.353Z" fill="#FF0099"/>
<path d="M301.813 183.178C307.591 186.236 311.244 190.74 312.774 196.687C309.375 215.72 306.316 234.667 303.597 253.53C300.878 272.222 298.244 287.941 295.695 300.686C293.146 313.261 291.362 322.693 290.343 328.98C289.493 335.268 288.473 341.555 287.284 347.843L285.754 353.196C285.414 355.065 285.075 356.764 284.735 358.294C284.395 359.993 284.055 361.777 283.715 363.647C278.957 369.084 272.5 371.803 264.343 371.803C255.676 371.803 248.794 369.594 243.696 365.176C240.637 362.797 240.127 357.784 242.166 350.137C243.016 347.078 243.526 343.17 243.696 338.411C244.036 333.483 244.376 329.405 244.715 326.176V325.666C239.617 327.536 235.029 330 230.951 333.059C226.872 335.947 224.323 337.817 223.304 338.666C222.284 339.346 220.925 339.941 219.225 340.451C217.526 340.791 215.997 341.045 214.637 341.215C211.409 341.385 209.199 341.895 208.01 342.745C198.154 360.418 189.317 370.274 181.5 372.313C176.572 373.843 171.644 374.182 166.716 373.333C161.788 372.653 157.88 369.764 154.991 364.666C149.553 359.568 150.912 345.634 159.069 322.863C163.487 310.797 169.775 296.353 177.932 279.53C186.258 262.536 194.245 247.752 201.892 235.177C218.376 208.158 236.474 185.387 256.186 166.864C259.415 165.504 262.898 163.975 266.637 162.276C270.375 160.406 274.029 159.387 277.598 159.217C281.336 159.047 285.16 159.472 289.068 160.491C292.977 161.511 296.29 163.04 299.009 165.08C305.297 169.838 306.231 175.87 301.813 183.178ZM247.264 250.216C243.696 260.412 240.127 269.843 236.559 278.51C232.99 287.007 229.931 294.484 227.382 300.941L247.519 300.177C248.879 289.301 250.408 278.51 252.108 267.804C253.807 257.098 255.421 246.393 256.951 235.687L247.264 250.216ZM240.382 301.196C242.761 301.196 245.14 301.026 247.519 300.686V300.431C245.31 300.601 243.271 300.771 241.402 300.941C239.532 301.111 239.193 301.196 240.382 301.196Z" fill="#FF0099"/>
<path d="M435.496 301.451C428.699 306.549 421.561 310.288 414.084 312.667C406.777 314.876 399.47 315.471 392.163 314.451C384.856 313.431 378.568 310.288 373.3 305.02C368.542 320.144 365.314 335.098 363.614 349.882C362.935 352.601 361.745 355.065 360.046 357.274C356.987 366.281 350.275 372.313 339.909 375.372C329.713 378.261 320.196 377.751 311.36 373.843C307.281 371.973 303.883 369.254 301.164 365.686C298.445 362.117 297.085 357.784 297.085 352.686C308.811 312.072 320.111 278.765 330.987 252.765C333.366 247.327 335.235 242.909 336.595 239.51C338.124 236.112 339.484 233.223 340.673 230.844C341.863 228.465 342.882 226.426 343.732 224.726C344.752 222.857 345.941 220.818 347.301 218.609C350.359 213.511 353.843 207.563 357.752 200.766C361.83 193.798 365.229 188.615 367.948 185.217C370.836 181.818 373.81 178.929 376.869 176.55C380.098 174.001 383.581 171.622 387.32 169.413C391.228 167.204 396.071 164.315 401.849 160.746C407.627 157.178 413.745 155.054 420.202 154.374C426.829 153.524 433.117 154.034 439.065 155.903C451.64 159.812 460.901 168.563 466.849 182.158C471.947 194.733 472.796 211.641 469.398 232.883C464.13 265.34 452.829 288.196 435.496 301.451ZM382.222 278.765C396.156 275.706 405.843 266.615 411.28 251.491C415.869 238.746 416.803 224.301 414.084 208.158C410.176 214.785 406.607 221.667 403.379 228.805C400.32 235.942 397.516 242.314 394.967 247.922C389.359 260.497 385.111 270.778 382.222 278.765Z" fill="#FF0099"/>
<path d="M590.079 301.451C583.281 306.549 576.144 310.288 568.667 312.667C561.36 314.876 554.053 315.471 546.746 314.451C539.439 313.431 533.151 310.288 527.883 305.02C523.125 320.144 519.896 335.098 518.197 349.882C517.517 352.601 516.328 355.065 514.628 357.274C511.57 366.281 504.857 372.313 494.491 375.372C484.295 378.261 474.779 377.751 465.943 373.843C461.864 371.973 458.465 369.254 455.747 365.686C453.028 362.117 451.668 357.784 451.668 352.686C463.393 312.072 474.694 278.765 485.57 252.765C487.949 247.327 489.818 242.909 491.178 239.51C492.707 236.112 494.066 233.223 495.256 230.844C496.446 228.465 497.465 226.426 498.315 224.726C499.334 222.857 500.524 220.818 501.883 218.609C504.942 213.511 508.426 207.563 512.334 200.766C516.413 193.798 519.811 188.615 522.53 185.217C525.419 181.818 528.393 178.929 531.452 176.55C534.68 174.001 538.164 171.622 541.903 169.413C545.811 167.204 550.654 164.315 556.432 160.746C562.21 157.178 568.327 155.054 574.785 154.374C581.412 153.524 587.7 154.034 593.647 155.903C606.222 159.812 615.484 168.563 621.431 182.158C626.529 194.733 627.379 211.641 623.98 232.883C618.712 265.34 607.412 288.196 590.079 301.451ZM536.805 278.765C550.739 275.706 560.425 266.615 565.863 251.491C570.451 238.746 571.386 224.301 568.667 208.158C564.759 214.785 561.19 221.667 557.961 228.805C554.903 235.942 552.099 242.314 549.55 247.922C543.942 260.497 539.693 270.778 536.805 278.765Z" fill="#FF0099"/>
<path d="M644.486 259.393C641.597 234.752 640.407 214.7 640.917 199.236C640.577 191.929 643.551 184.962 649.839 178.334C655.786 172.047 661.989 168.563 668.446 167.884C675.584 167.374 680.172 171.367 682.211 179.864C683.57 184.622 685.27 190.145 687.309 196.432C689.348 202.72 691.302 209.347 693.172 216.314C695.041 213.765 698.015 209.262 702.093 202.805C706.172 196.347 709.995 190.57 713.564 185.472C722.23 173.067 729.877 164.4 736.505 159.472C742.962 156.923 748.485 156.243 753.073 157.433C757.831 158.452 761.23 160.152 763.269 162.531C765.478 164.91 766.328 168.393 765.818 172.982C765.478 183.687 757.321 200.511 741.348 223.452C737.609 228.72 733.786 234.837 729.877 241.804C726.139 248.772 721.721 256.589 716.622 265.255C711.694 273.752 706.936 282.249 702.348 290.745C691.812 309.948 683.57 328.215 677.623 345.549C677.793 345.209 678.473 345.634 679.662 346.823C680.852 347.843 681.956 349.372 682.976 351.411C685.695 356.509 685.44 360.758 682.211 364.156C674.054 372.653 663.943 377.411 651.878 378.431C640.832 379.28 631.316 377.241 623.329 372.313C615.342 367.725 612.708 362.032 615.427 355.235H614.663C618.401 345.549 622.649 336.457 627.408 327.961C632.166 319.294 637.094 310.373 642.192 301.196L653.662 280.804C650.773 281.484 648.394 279.445 646.525 274.687C645.166 270.778 644.486 265.68 644.486 259.393Z" fill="#FF0099"/>
<path d="M91.9213 285.431L79.6861 316.529C77.9868 321.287 76.4574 326.215 75.0979 331.313C73.7385 336.411 72.2941 340.83 70.7647 344.568C69.2353 348.477 66.8562 351.535 63.6275 353.745C60.5687 355.954 57.085 357.568 53.1766 358.588C49.2681 359.777 45.1897 360.287 40.9414 360.117C36.863 359.947 33.2094 359.182 29.9807 357.823C22.6736 354.424 20.1246 348.816 22.3337 341C30.1506 306.673 37.4578 279.144 44.2551 258.412C51.2223 237.68 56.9151 221.367 61.3334 209.471C65.9216 197.576 70.6797 185.001 75.6077 171.746C76.1175 166.818 78.1567 162.4 81.7253 158.491C85.2939 154.583 89.4573 151.354 94.2154 148.805C99.1435 146.256 104.241 144.472 109.509 143.452C114.777 142.263 119.451 142.093 123.529 142.942C127.607 143.792 130.581 145.661 132.45 148.55C134.49 151.439 134.66 155.602 132.96 161.04C126.843 176.674 122.509 187.72 119.96 194.177C117.411 200.635 115.117 206.412 113.078 211.51L105.941 228.334C109.509 228.504 114.013 227.994 119.451 226.804C129.307 224.595 136.444 223.831 140.862 224.51C140.862 223.661 141.287 222.216 142.137 220.177C146.895 199.445 152.248 180.413 158.195 163.08C162.444 148.805 173.404 141.328 191.077 140.648C198.045 140.648 203.312 142.348 206.881 145.746C210.79 149.315 211.299 154.158 208.411 160.276C192.777 204.118 181.731 238.7 175.274 264.02C167.966 293.248 163.123 312.961 160.744 323.157C158.535 333.353 156.581 339.385 154.882 341.254C153.182 343.124 151.398 344.398 149.529 345.078C147.829 345.928 146.13 346.692 144.431 347.372C142.731 348.052 141.372 349.751 140.352 352.47H139.588C138.228 355.529 135.254 357.908 130.666 359.607C126.078 361.307 121.405 361.901 116.647 361.392C112.058 361.052 108.15 359.352 104.921 356.294C101.862 353.405 101.098 348.901 102.627 342.784C104.326 333.098 107.13 322.732 111.039 311.686C114.947 300.47 118.006 291.719 120.215 285.431C122.594 279.144 124.549 273.281 126.078 267.843C124.718 268.523 123.359 269.033 122 269.373C120.81 269.713 119.281 270.392 117.411 271.412C115.542 272.262 113.588 273.026 111.549 273.706C109.679 274.386 107.81 275.065 105.941 275.745C101.183 277.614 97.2742 279.484 94.2154 281.353L91.9213 285.431ZM120.725 268.353C120.895 268.353 121.745 268.098 123.274 267.588C122.254 267.928 121.405 268.183 120.725 268.353Z" fill="#FFCB45"/>
<path d="M321.813 168.178C327.591 171.236 331.244 175.74 332.774 181.687C329.375 200.72 326.316 219.667 323.597 238.53C320.878 257.222 318.244 272.941 315.695 285.686C313.146 298.261 311.362 307.693 310.343 313.98C309.493 320.268 308.473 326.555 307.284 332.843L305.754 338.196C305.414 340.065 305.075 341.764 304.735 343.294C304.395 344.993 304.055 346.777 303.715 348.647C298.957 354.084 292.5 356.803 284.343 356.803C275.676 356.803 268.794 354.594 263.696 350.176C260.637 347.797 260.127 342.784 262.166 335.137C263.016 332.078 263.526 328.17 263.696 323.411C264.036 318.483 264.376 314.405 264.715 311.176V310.666C259.617 312.536 255.029 315 250.951 318.059C246.872 320.947 244.323 322.817 243.304 323.666C242.284 324.346 240.925 324.941 239.225 325.451C237.526 325.791 235.997 326.045 234.637 326.215C231.409 326.385 229.199 326.895 228.01 327.745C218.154 345.418 209.317 355.274 201.5 357.313C196.572 358.843 191.644 359.182 186.716 358.333C181.788 357.653 177.88 354.764 174.991 349.666C169.553 344.568 170.912 330.634 179.069 307.863C183.487 295.797 189.775 281.353 197.932 264.53C206.258 247.536 214.245 232.752 221.892 220.177C238.376 193.158 256.474 170.387 276.186 151.864C279.415 150.504 282.898 148.975 286.637 147.276C290.375 145.406 294.029 144.387 297.598 144.217C301.336 144.047 305.16 144.472 309.068 145.491C312.977 146.511 316.29 148.04 319.009 150.08C325.297 154.838 326.231 160.87 321.813 168.178ZM267.264 235.216C263.696 245.412 260.127 254.843 256.559 263.51C252.99 272.007 249.931 279.484 247.382 285.941L267.519 285.177C268.879 274.301 270.408 263.51 272.108 252.804C273.807 242.098 275.421 231.393 276.951 220.687L267.264 235.216ZM260.382 286.196C262.761 286.196 265.14 286.026 267.519 285.686V285.431C265.31 285.601 263.271 285.771 261.402 285.941C259.532 286.111 259.193 286.196 260.382 286.196Z" fill="#FFCB45"/>
<path d="M455.496 286.451C448.699 291.549 441.561 295.288 434.084 297.667C426.777 299.876 419.47 300.471 412.163 299.451C404.856 298.431 398.568 295.288 393.3 290.02C388.542 305.144 385.314 320.098 383.614 334.882C382.935 337.601 381.745 340.065 380.046 342.274C376.987 351.281 370.275 357.313 359.909 360.372C349.713 363.261 340.196 362.751 331.36 358.843C327.281 356.973 323.883 354.254 321.164 350.686C318.445 347.117 317.085 342.784 317.085 337.686C328.811 297.072 340.111 263.765 350.987 237.765C353.366 232.327 355.235 227.909 356.595 224.51C358.124 221.112 359.484 218.223 360.673 215.844C361.863 213.465 362.882 211.426 363.732 209.726C364.752 207.857 365.941 205.818 367.301 203.609C370.359 198.511 373.843 192.563 377.752 185.766C381.83 178.798 385.229 173.615 387.948 170.217C390.836 166.818 393.81 163.929 396.869 161.55C400.098 159.001 403.581 156.622 407.32 154.413C411.228 152.204 416.071 149.315 421.849 145.746C427.627 142.178 433.745 140.054 440.202 139.374C446.829 138.524 453.117 139.034 459.065 140.903C471.64 144.812 480.901 153.563 486.849 167.158C491.947 179.733 492.796 196.641 489.398 217.883C484.13 250.34 472.829 273.196 455.496 286.451ZM402.222 263.765C416.156 260.706 425.843 251.615 431.28 236.491C435.869 223.746 436.803 209.301 434.084 193.158C430.176 199.785 426.607 206.667 423.379 213.805C420.32 220.942 417.516 227.314 414.967 232.922C409.359 245.497 405.111 255.778 402.222 263.765Z" fill="#FFCB45"/>
<path d="M610.079 286.451C603.281 291.549 596.144 295.288 588.667 297.667C581.36 299.876 574.053 300.471 566.746 299.451C559.439 298.431 553.151 295.288 547.883 290.02C543.125 305.144 539.896 320.098 538.197 334.882C537.517 337.601 536.328 340.065 534.628 342.274C531.57 351.281 524.857 357.313 514.491 360.372C504.295 363.261 494.779 362.751 485.943 358.843C481.864 356.973 478.465 354.254 475.747 350.686C473.028 347.117 471.668 342.784 471.668 337.686C483.393 297.072 494.694 263.765 505.57 237.765C507.949 232.327 509.818 227.909 511.178 224.51C512.707 221.112 514.066 218.223 515.256 215.844C516.446 213.465 517.465 211.426 518.315 209.726C519.334 207.857 520.524 205.818 521.883 203.609C524.942 198.511 528.426 192.563 532.334 185.766C536.413 178.798 539.811 173.615 542.53 170.217C545.419 166.818 548.393 163.929 551.452 161.55C554.68 159.001 558.164 156.622 561.903 154.413C565.811 152.204 570.654 149.315 576.432 145.746C582.21 142.178 588.327 140.054 594.785 139.374C601.412 138.524 607.7 139.034 613.647 140.903C626.222 144.812 635.484 153.563 641.431 167.158C646.529 179.733 647.379 196.641 643.98 217.883C638.712 250.34 627.412 273.196 610.079 286.451ZM556.805 263.765C570.739 260.706 580.425 251.615 585.863 236.491C590.451 223.746 591.386 209.301 588.667 193.158C584.759 199.785 581.19 206.667 577.961 213.805C574.903 220.942 572.099 227.314 569.55 232.922C563.942 245.497 559.693 255.778 556.805 263.765Z" fill="#FFCB45"/>
<path d="M664.486 244.393C661.597 219.752 660.407 199.7 660.917 184.236C660.577 176.929 663.551 169.962 669.839 163.334C675.786 157.047 681.989 153.563 688.446 152.884C695.584 152.374 700.172 156.367 702.211 164.864C703.57 169.622 705.27 175.145 707.309 181.432C709.348 187.72 711.302 194.347 713.172 201.314C715.041 198.765 718.015 194.262 722.093 187.805C726.172 181.347 729.995 175.57 733.564 170.472C742.23 158.067 749.877 149.4 756.505 144.472C762.962 141.923 768.485 141.243 773.073 142.433C777.831 143.452 781.23 145.152 783.269 147.531C785.478 149.91 786.328 153.393 785.818 157.982C785.478 168.687 777.321 185.511 761.348 208.452C757.609 213.72 753.786 219.837 749.877 226.804C746.139 233.772 741.721 241.589 736.622 250.255C731.694 258.752 726.936 267.249 722.348 275.745C711.812 294.948 703.57 313.215 697.623 330.549C697.793 330.209 698.473 330.634 699.662 331.823C700.852 332.843 701.956 334.372 702.976 336.411C705.695 341.509 705.44 345.758 702.211 349.156C694.054 357.653 683.943 362.411 671.878 363.431C660.832 364.28 651.316 362.241 643.329 357.313C635.342 352.725 632.708 347.032 635.427 340.235H634.663C638.401 330.549 642.649 321.457 647.408 312.961C652.166 304.294 657.094 295.373 662.192 286.196L673.662 265.804C670.773 266.484 668.394 264.445 666.525 259.687C665.166 255.778 664.486 250.68 664.486 244.393Z" fill="#FFCB45"/>
<path d="M68.3138 626.494C59.6472 626.834 51.6603 625.73 44.3532 623.181C37.216 620.802 31.3533 617.488 26.7651 613.24C22.3469 608.991 19.543 604.063 18.3534 598.455C17.1639 592.678 18.1835 586.815 21.4122 580.867C25.8305 573.73 34.667 571.606 47.9218 574.495C57.9479 576.534 64.8302 577.639 68.5687 577.809C72.4771 577.978 75.7908 577.469 78.5098 576.279C90.9149 572.201 97.8822 567.783 99.4116 563.024C100.431 559.456 98.222 555.292 92.7842 550.534C90.575 548.495 88.111 546.456 85.3921 544.417C82.6731 542.378 80.379 540.338 78.5098 538.299C70.0131 532.012 63.3008 524.789 58.3727 516.633C53.6146 508.306 51.6603 499.299 52.51 489.613C53.3597 479.927 54.974 471.94 57.3531 465.653C59.7322 459.195 62.706 453.502 66.2746 448.574C72.5621 439.908 80.7189 432.856 90.745 427.418C102.3 421.47 111.562 417.647 118.529 415.947C132.294 412.888 146.228 412.634 160.333 415.183C165.091 416.032 169.169 417.647 172.568 420.026C175.966 422.405 179.365 424.869 182.764 427.418C188.711 433.365 190.156 439.398 187.097 445.516C185.908 448.235 184.038 450.444 181.489 452.143C178.94 453.842 176.221 454.777 173.332 454.947C173.672 459.535 172.823 462.934 170.783 465.143C166.875 469.051 160.078 471.6 150.391 472.79C136.457 471.77 127.026 472.535 122.098 475.084C116.32 478.143 114.196 484.77 115.725 494.966C116.065 497.175 117.424 499.469 119.804 501.848C122.353 504.227 125.241 506.776 128.47 509.495C131.869 512.214 135.352 515.273 138.921 518.672C142.66 522.07 145.888 525.979 148.607 530.397C158.123 546.031 157.359 564.299 146.313 585.201C138.156 600.834 124.222 612.56 104.51 620.377C94.3136 624.455 82.2483 626.494 68.3138 626.494Z" fill="#FF0099"/>
<path d="M254.074 427.163V427.673C254.074 427.843 254.074 427.928 254.074 427.928C254.244 427.928 254.329 428.012 254.329 428.182V428.692H254.584L256.113 432.771C257.812 437.699 253.394 452.993 242.858 478.653C231.643 506.012 226.46 527.338 227.309 542.632C229.179 553.508 238.27 544.757 254.584 516.378C267.499 494.286 279.989 470.071 292.054 443.731C293.583 440.163 295.198 436.509 296.897 432.771C298.596 428.862 300.721 425.633 303.27 423.084C308.877 416.967 315.675 415.352 323.662 418.241C326.381 415.013 329.524 412.803 333.093 411.614C336.831 410.424 340.315 410.169 343.544 410.849C346.942 411.529 349.831 413.143 352.21 415.692C354.589 418.071 355.864 421.3 356.034 425.379C356.544 428.777 354.759 436.849 350.681 449.594C346.772 462.339 343.119 473.979 339.72 484.515C336.322 495.051 332.838 506.522 329.269 518.927C320.603 548.325 313.72 576.024 308.622 602.024C308.453 607.462 306.073 611.965 301.485 615.534C297.067 619.102 292.054 621.396 286.446 622.416C281.008 623.606 275.825 623.436 270.897 621.906C264.95 620.207 261.806 615.959 261.466 609.161C261.466 607.292 261.381 605.423 261.211 603.553C261.551 609.331 257.388 614.259 248.721 618.338C246.342 619.527 244.133 620.632 242.094 621.651C230.198 625.22 217.708 624.455 204.623 619.357C198.506 616.808 192.983 613.41 188.055 609.161C183.297 604.743 179.983 599.56 178.114 593.612C172.166 574.58 173.271 549.6 181.428 518.672C184.826 505.417 188.99 492.502 193.918 479.927C198.846 467.352 202.414 458.261 204.623 452.653C207.002 447.045 208.702 443.222 209.721 441.182C210.741 438.973 211.846 436.849 213.035 434.81C215.924 429.032 218.388 425.124 220.427 423.084L223.486 420.281C223.826 419.941 224.166 419.771 224.506 419.771C224.845 419.601 225.27 419.346 225.78 419.006C227.14 418.156 228.584 417.562 230.113 417.222L233.682 416.457H235.211C240.139 415.777 244.388 416.797 247.956 419.516C247.956 419.686 248.126 419.771 248.466 419.771L250.505 421.555L251.27 422.32L252.035 423.339C252.035 423.509 252.035 423.594 252.035 423.594C252.205 423.594 252.29 423.679 252.29 423.849L252.545 424.104V424.614C252.714 424.614 252.799 424.699 252.799 424.869V425.124C252.969 425.294 253.139 425.379 253.309 425.379V425.633C253.309 425.803 253.309 425.888 253.309 425.888C253.479 425.888 253.564 425.973 253.564 426.143C253.564 426.143 253.649 426.228 253.819 426.398V426.653C253.819 426.823 253.904 426.993 254.074 427.163ZM260.956 596.926V596.161C260.786 596.331 260.701 597.011 260.701 598.201C260.701 597.691 260.786 597.351 260.956 597.181V596.926Z" fill="#FF0099"/>
<path d="M475.727 419.516L476.747 419.771C480.995 422.32 484.649 425.209 487.707 428.437C490.936 431.496 493.825 434.81 496.374 438.378C499.093 441.777 501.217 445.516 502.747 449.594C509.204 465.228 503.596 482.731 485.923 502.103C478.446 510.26 470.034 517.227 460.688 523.005C463.067 524.704 465.276 525.979 467.316 526.829C469.525 527.508 472.583 528.953 476.492 531.162C480.4 533.201 482.949 537.195 484.139 543.142C485.328 548.92 484.989 555.462 483.119 562.769C481.42 570.077 478.191 577.639 473.433 585.456C468.845 593.103 462.812 599.985 455.335 606.102C438.342 620.207 418.63 626.155 396.198 623.945C392.97 623.945 390.931 623.691 390.081 623.181C389.231 622.671 388.551 622.246 388.042 621.906C387.532 621.566 386.427 621.311 384.728 621.142C380.48 624.54 375.637 626.664 370.199 627.514C364.761 628.364 359.578 627.939 354.65 626.24C349.892 624.54 345.813 621.651 342.415 617.573C339.186 613.495 337.572 608.142 337.572 601.514C338.081 597.096 338.931 593.612 340.121 591.063C339.611 589.534 339.356 587.665 339.356 585.456C345.134 554.698 350.571 531.162 355.669 514.848C366.035 482.391 377.251 457.921 389.316 441.437C399.172 427.503 412.852 418.496 430.355 414.418C447.178 410.509 462.302 412.209 475.727 419.516ZM396.453 597.436C398.493 596.926 400.192 596.841 401.551 597.181C403.081 597.351 404.865 597.266 406.904 596.926C411.832 596.416 418.46 593.357 426.786 587.75C432.054 582.482 434.858 577.299 435.198 572.201C435.538 567.103 434.773 563.874 432.904 562.515C431.035 560.985 428.486 560.22 425.257 560.22C422.198 560.22 418.715 560.73 414.806 561.75C411.068 562.6 407.414 563.109 403.845 563.279V563.789C402.996 567.188 402.146 570.162 401.296 572.711C400.447 575.26 399.682 577.724 399.002 580.103C397.473 585.71 396.283 591.488 395.434 597.436H396.453ZM443.865 464.888C438.767 464.208 433.244 468.202 427.296 476.868C423.558 482.306 420.669 490.548 418.63 501.594C422.198 500.064 425.682 498.79 429.081 497.77C432.649 496.58 435.963 495.306 439.022 493.947C446.499 490.718 451.852 486.809 455.08 482.221C458.819 477.803 460.008 474.064 458.649 471.006C456.61 468.287 453.296 465.823 448.708 463.613C447.348 464.803 445.734 465.228 443.865 464.888ZM440.041 463.868H440.806H440.041Z" fill="#FF0099"/>
<path d="M532.56 626.494C523.893 626.834 515.906 625.73 508.599 623.181C501.462 620.802 495.599 617.488 491.011 613.24C486.593 608.991 483.789 604.063 482.6 598.455C481.41 592.678 482.43 586.815 485.658 580.867C490.077 573.73 498.913 571.606 512.168 574.495C522.194 576.534 529.076 577.639 532.815 577.809C536.723 577.978 540.037 577.469 542.756 576.279C555.161 572.201 562.128 567.783 563.658 563.024C564.677 559.456 562.468 555.292 557.03 550.534C554.821 548.495 552.357 546.456 549.638 544.417C546.919 542.378 544.625 540.338 542.756 538.299C534.259 532.012 527.547 524.789 522.619 516.633C517.861 508.306 515.906 499.299 516.756 489.613C517.606 479.927 519.22 471.94 521.599 465.653C523.978 459.195 526.952 453.502 530.521 448.574C536.808 439.908 544.965 432.856 554.991 427.418C566.547 421.47 575.808 417.647 582.775 415.947C596.54 412.888 610.474 412.634 624.579 415.183C629.337 416.032 633.415 417.647 636.814 420.026C640.213 422.405 643.611 424.869 647.01 427.418C652.958 433.365 654.402 439.398 651.343 445.516C650.154 448.235 648.284 450.444 645.735 452.143C643.186 453.842 640.467 454.777 637.579 454.947C637.918 459.535 637.069 462.934 635.03 465.143C631.121 469.051 624.324 471.6 614.638 472.79C600.703 471.77 591.272 472.535 586.344 475.084C580.566 478.143 578.442 484.77 579.971 494.966C580.311 497.175 581.671 499.469 584.05 501.848C586.599 504.227 589.487 506.776 592.716 509.495C596.115 512.214 599.599 515.273 603.167 518.672C606.906 522.07 610.134 525.979 612.853 530.397C622.37 546.031 621.605 564.299 610.559 585.201C602.402 600.834 588.468 612.56 568.756 620.377C558.56 624.455 546.494 626.494 532.56 626.494Z" fill="#FF0099"/>
<path d="M750.947 427.928C751.627 429.967 752.392 431.411 753.241 432.261C754.091 432.941 754.686 433.45 755.026 433.79C755.875 434.64 755.45 436.169 753.751 438.378C752.222 441.437 750.098 445.006 747.379 449.084C742.451 456.391 739.307 461.744 737.947 465.143C730.98 479.077 725.542 491.907 721.634 503.633C717.725 515.188 714.412 525.639 711.693 534.985C708.974 544.332 706.34 552.573 703.791 559.711C700.732 568.037 697.163 574.24 693.085 578.318C691.046 581.717 687.392 584.011 682.124 585.201C676.856 586.39 671.503 586.645 666.066 585.965C660.628 585.116 655.955 583.331 652.046 580.612C648.308 577.894 646.948 574.325 647.968 569.907C649.837 553.933 652.641 540.508 656.379 529.632C660.288 518.757 663.602 509.75 666.32 502.613C669.209 495.476 671.673 489.103 673.713 483.496C675.752 477.718 677.621 472.79 679.32 468.711C681.19 464.463 683.314 460.045 685.693 455.457C688.072 450.699 690.621 445.94 693.34 441.182C696.229 436.254 699.118 431.751 702.006 427.673C708.634 418.326 714.242 412.803 718.83 411.104C723.418 409.235 728.006 408.13 732.594 407.79C737.353 407.451 741.431 407.96 744.83 409.32C748.398 410.679 750.862 412.888 752.222 415.947C753.581 419.006 753.156 422.999 750.947 427.928ZM690.026 620.122C688.157 627.089 684.248 632.272 678.301 635.671C672.523 639.239 666.32 641.109 659.693 641.279C653.066 641.618 646.863 640.344 641.085 637.455C635.478 634.736 631.994 630.403 630.635 624.455C629.105 618.677 629.955 613.749 633.183 609.671C636.582 605.423 640.576 602.704 645.164 601.514C649.752 600.155 655.105 599.22 661.222 598.71C667.51 598.201 673.203 598.54 678.301 599.73C683.399 600.919 687.307 603.129 690.026 606.357C692.745 609.586 692.745 614.174 690.026 620.122Z" fill="#FF0099"/>
<path d="M88.3138 611.494C79.6472 611.834 71.6603 610.73 64.3532 608.181C57.216 605.802 51.3533 602.488 46.7651 598.24C42.3469 593.991 39.543 589.063 38.3534 583.455C37.1639 577.678 38.1835 571.815 41.4122 565.867C45.8305 558.73 54.667 556.606 67.9218 559.495C77.9479 561.534 84.8302 562.639 88.5687 562.809C92.4771 562.978 95.7908 562.469 98.5098 561.279C110.915 557.201 117.882 552.783 119.412 548.024C120.431 544.456 118.222 540.292 112.784 535.534C110.575 533.495 108.111 531.456 105.392 529.417C102.673 527.378 100.379 525.338 98.5098 523.299C90.0131 517.012 83.3008 509.789 78.3727 501.633C73.6146 493.306 71.6603 484.299 72.51 474.613C73.3597 464.927 74.974 456.94 77.3531 450.653C79.7322 444.195 82.706 438.502 86.2746 433.574C92.5621 424.908 100.719 417.856 110.745 412.418C122.3 406.47 131.562 402.647 138.529 400.947C152.294 397.888 166.228 397.634 180.333 400.183C185.091 401.032 189.169 402.647 192.568 405.026C195.966 407.405 199.365 409.869 202.764 412.418C208.711 418.365 210.156 424.398 207.097 430.516C205.908 433.235 204.038 435.444 201.489 437.143C198.94 438.842 196.221 439.777 193.332 439.947C193.672 444.535 192.823 447.934 190.783 450.143C186.875 454.051 180.078 456.6 170.391 457.79C156.457 456.77 147.026 457.535 142.098 460.084C136.32 463.143 134.196 469.77 135.725 479.966C136.065 482.175 137.424 484.469 139.804 486.848C142.353 489.227 145.241 491.776 148.47 494.495C151.869 497.214 155.352 500.273 158.921 503.672C162.66 507.07 165.888 510.979 168.607 515.397C178.123 531.031 177.359 549.299 166.313 570.201C158.156 585.834 144.222 597.56 124.51 605.377C114.314 609.455 102.248 611.494 88.3138 611.494Z" fill="#FFCB45"/>
<path d="M274.074 412.163V412.673C274.074 412.843 274.074 412.928 274.074 412.928C274.244 412.928 274.329 413.012 274.329 413.182V413.692H274.584L276.113 417.771C277.812 422.699 273.394 437.993 262.858 463.653C251.643 491.012 246.46 512.338 247.309 527.632C249.179 538.508 258.27 529.757 274.584 501.378C287.499 479.286 299.989 455.071 312.054 428.731C313.583 425.163 315.198 421.509 316.897 417.771C318.596 413.862 320.721 410.633 323.27 408.084C328.877 401.967 335.675 400.352 343.662 403.241C346.381 400.013 349.524 397.803 353.093 396.614C356.831 395.424 360.315 395.169 363.544 395.849C366.942 396.529 369.831 398.143 372.21 400.692C374.589 403.071 375.864 406.3 376.034 410.379C376.544 413.777 374.759 421.849 370.681 434.594C366.772 447.339 363.119 458.979 359.72 469.515C356.322 480.051 352.838 491.522 349.269 503.927C340.603 533.325 333.72 561.024 328.622 587.024C328.453 592.462 326.073 596.965 321.485 600.534C317.067 604.102 312.054 606.396 306.446 607.416C301.008 608.606 295.825 608.436 290.897 606.906C284.95 605.207 281.806 600.959 281.466 594.161C281.466 592.292 281.381 590.423 281.211 588.553C281.551 594.331 277.388 599.259 268.721 603.338C266.342 604.527 264.133 605.632 262.094 606.651C250.198 610.22 237.708 609.455 224.623 604.357C218.506 601.808 212.983 598.41 208.055 594.161C203.297 589.743 199.983 584.56 198.114 578.612C192.166 559.58 193.271 534.6 201.428 503.672C204.826 490.417 208.99 477.502 213.918 464.927C218.846 452.352 222.414 443.261 224.623 437.653C227.002 432.045 228.702 428.222 229.721 426.182C230.741 423.973 231.846 421.849 233.035 419.81C235.924 414.032 238.388 410.124 240.427 408.084L243.486 405.281C243.826 404.941 244.166 404.771 244.506 404.771C244.845 404.601 245.27 404.346 245.78 404.006C247.14 403.156 248.584 402.562 250.113 402.222L253.682 401.457H255.211C260.139 400.777 264.388 401.797 267.956 404.516C267.956 404.686 268.126 404.771 268.466 404.771L270.505 406.555L271.27 407.32L272.035 408.339C272.035 408.509 272.035 408.594 272.035 408.594C272.205 408.594 272.29 408.679 272.29 408.849L272.545 409.104V409.614C272.714 409.614 272.799 409.699 272.799 409.869V410.124C272.969 410.294 273.139 410.379 273.309 410.379V410.633C273.309 410.803 273.309 410.888 273.309 410.888C273.479 410.888 273.564 410.973 273.564 411.143C273.564 411.143 273.649 411.228 273.819 411.398V411.653C273.819 411.823 273.904 411.993 274.074 412.163ZM280.956 581.926V581.161C280.786 581.331 280.701 582.011 280.701 583.201C280.701 582.691 280.786 582.351 280.956 582.181V581.926Z" fill="#FFCB45"/>
<path d="M495.727 404.516L496.747 404.771C500.995 407.32 504.649 410.209 507.707 413.437C510.936 416.496 513.825 419.81 516.374 423.378C519.093 426.777 521.217 430.516 522.747 434.594C529.204 450.228 523.596 467.731 505.923 487.103C498.446 495.26 490.034 502.227 480.688 508.005C483.067 509.704 485.276 510.979 487.316 511.829C489.525 512.508 492.583 513.953 496.492 516.162C500.4 518.201 502.949 522.195 504.139 528.142C505.328 533.92 504.989 540.462 503.119 547.769C501.42 555.077 498.191 562.639 493.433 570.456C488.845 578.103 482.812 584.985 475.335 591.102C458.342 605.207 438.63 611.155 416.198 608.945C412.97 608.945 410.931 608.691 410.081 608.181C409.231 607.671 408.551 607.246 408.042 606.906C407.532 606.566 406.427 606.311 404.728 606.142C400.48 609.54 395.637 611.664 390.199 612.514C384.761 613.364 379.578 612.939 374.65 611.24C369.892 609.54 365.813 606.651 362.415 602.573C359.186 598.495 357.572 593.142 357.572 586.514C358.081 582.096 358.931 578.612 360.121 576.063C359.611 574.534 359.356 572.665 359.356 570.456C365.134 539.698 370.571 516.162 375.669 499.848C386.035 467.391 397.251 442.921 409.316 426.437C419.172 412.503 432.852 403.496 450.355 399.418C467.178 395.509 482.302 397.209 495.727 404.516ZM416.453 582.436C418.493 581.926 420.192 581.841 421.551 582.181C423.081 582.351 424.865 582.266 426.904 581.926C431.832 581.416 438.46 578.357 446.786 572.75C452.054 567.482 454.858 562.299 455.198 557.201C455.538 552.103 454.773 548.874 452.904 547.515C451.035 545.985 448.486 545.22 445.257 545.22C442.198 545.22 438.715 545.73 434.806 546.75C431.068 547.6 427.414 548.109 423.845 548.279V548.789C422.996 552.188 422.146 555.162 421.296 557.711C420.447 560.26 419.682 562.724 419.002 565.103C417.473 570.71 416.283 576.488 415.434 582.436H416.453ZM463.865 449.888C458.767 449.208 453.244 453.202 447.296 461.868C443.558 467.306 440.669 475.548 438.63 486.594C442.198 485.064 445.682 483.79 449.081 482.77C452.649 481.58 455.963 480.306 459.022 478.947C466.499 475.718 471.852 471.809 475.08 467.221C478.819 462.803 480.008 459.064 478.649 456.006C476.61 453.287 473.296 450.823 468.708 448.613C467.348 449.803 465.734 450.228 463.865 449.888ZM460.041 448.868H460.806H460.041Z" fill="#FFCB45"/>
<path d="M552.56 611.494C543.893 611.834 535.906 610.73 528.599 608.181C521.462 605.802 515.599 602.488 511.011 598.24C506.593 593.991 503.789 589.063 502.6 583.455C501.41 577.678 502.43 571.815 505.658 565.867C510.077 558.73 518.913 556.606 532.168 559.495C542.194 561.534 549.076 562.639 552.815 562.809C556.723 562.978 560.037 562.469 562.756 561.279C575.161 557.201 582.128 552.783 583.658 548.024C584.677 544.456 582.468 540.292 577.03 535.534C574.821 533.495 572.357 531.456 569.638 529.417C566.919 527.378 564.625 525.338 562.756 523.299C554.259 517.012 547.547 509.789 542.619 501.633C537.861 493.306 535.906 484.299 536.756 474.613C537.606 464.927 539.22 456.94 541.599 450.653C543.978 444.195 546.952 438.502 550.521 433.574C556.808 424.908 564.965 417.856 574.991 412.418C586.547 406.47 595.808 402.647 602.775 400.947C616.54 397.888 630.474 397.634 644.579 400.183C649.337 401.032 653.415 402.647 656.814 405.026C660.213 407.405 663.611 409.869 667.01 412.418C672.958 418.365 674.402 424.398 671.343 430.516C670.154 433.235 668.284 435.444 665.735 437.143C663.186 438.842 660.467 439.777 657.579 439.947C657.918 444.535 657.069 447.934 655.03 450.143C651.121 454.051 644.324 456.6 634.638 457.79C620.703 456.77 611.272 457.535 606.344 460.084C600.566 463.143 598.442 469.77 599.971 479.966C600.311 482.175 601.671 484.469 604.05 486.848C606.599 489.227 609.487 491.776 612.716 494.495C616.115 497.214 619.599 500.273 623.167 503.672C626.906 507.07 630.134 510.979 632.853 515.397C642.37 531.031 641.605 549.299 630.559 570.201C622.402 585.834 608.468 597.56 588.756 605.377C578.56 609.455 566.494 611.494 552.56 611.494Z" fill="#FFCB45"/>
<path d="M770.947 412.928C771.627 414.967 772.392 416.411 773.241 417.261C774.091 417.941 774.686 418.45 775.026 418.79C775.875 419.64 775.45 421.169 773.751 423.378C772.222 426.437 770.098 430.006 767.379 434.084C762.451 441.391 759.307 446.744 757.947 450.143C750.98 464.077 745.542 476.907 741.634 488.633C737.725 500.188 734.412 510.639 731.693 519.985C728.974 529.332 726.34 537.573 723.791 544.711C720.732 553.037 717.163 559.24 713.085 563.318C711.046 566.717 707.392 569.011 702.124 570.201C696.856 571.39 691.503 571.645 686.066 570.965C680.628 570.116 675.955 568.331 672.046 565.612C668.308 562.894 666.948 559.325 667.968 554.907C669.837 538.933 672.641 525.508 676.379 514.632C680.288 503.757 683.602 494.75 686.32 487.613C689.209 480.476 691.673 474.103 693.713 468.496C695.752 462.718 697.621 457.79 699.32 453.711C701.19 449.463 703.314 445.045 705.693 440.457C708.072 435.699 710.621 430.94 713.34 426.182C716.229 421.254 719.118 416.751 722.006 412.673C728.634 403.326 734.242 397.803 738.83 396.104C743.418 394.235 748.006 393.13 752.594 392.79C757.353 392.451 761.431 392.96 764.83 394.32C768.398 395.679 770.862 397.888 772.222 400.947C773.581 404.006 773.156 407.999 770.947 412.928ZM710.026 605.122C708.157 612.089 704.248 617.272 698.301 620.671C692.523 624.239 686.32 626.109 679.693 626.279C673.066 626.618 666.863 625.344 661.085 622.455C655.478 619.736 651.994 615.403 650.635 609.455C649.105 603.677 649.955 598.749 653.183 594.671C656.582 590.423 660.576 587.704 665.164 586.514C669.752 585.155 675.105 584.22 681.222 583.71C687.51 583.201 693.203 583.54 698.301 584.73C703.399 585.919 707.307 588.129 710.026 591.357C712.745 594.586 712.745 599.174 710.026 605.122Z" fill="#FFCB45"/>
</svg>
