<svg width="36" height="36" viewBox="0 0 36 36" fill="none" xmlns="http://www.w3.org/2000/svg">
<path d="M13 29C12.45 29 11.9793 28.8043 11.588 28.413C11.196 28.021 11 27.55 11 27C11 26.45 11.196 25.979 11.588 25.587C11.9793 25.1957 12.45 25 13 25C13.55 25 14.0207 25.1957 14.412 25.587C14.804 25.979 15 26.45 15 27C15 27.55 14.804 28.021 14.412 28.413C14.0207 28.8043 13.55 29 13 29ZM23 29C22.45 29 21.9793 28.8043 21.588 28.413C21.196 28.021 21 27.55 21 27C21 26.45 21.196 25.979 21.588 25.587C21.9793 25.1957 22.45 25 23 25C23.55 25 24.021 25.1957 24.413 25.587C24.8043 25.979 25 26.45 25 27C25 27.55 24.8043 28.021 24.413 28.413C24.021 28.8043 23.55 29 23 29ZM18 16.5C17.7167 16.5 17.4793 16.404 17.288 16.212C17.096 16.0207 17 15.7833 17 15.5C17 15.2167 17.096 14.979 17.288 14.787C17.4793 14.5957 17.7167 14.5 18 14.5C18.2833 14.5 18.521 14.5957 18.713 14.787C18.9043 14.979 19 15.2167 19 15.5C19 15.7833 18.9043 16.0207 18.713 16.212C18.521 16.404 18.2833 16.5 18 16.5ZM18 13C17.4477 13 17 12.5523 17 12V9C17 8.44772 17.4477 8 18 8C18.5523 8 19 8.44772 19 9V12C19 12.5523 18.5523 13 18 13ZM13 24C12.2333 24 11.6543 23.6707 11.263 23.012C10.871 22.354 10.8667 21.7 11.25 21.05L12.5506 18.6896C12.5816 18.6334 12.5837 18.5656 12.5562 18.5075L9 11H8C7.71667 11 7.47933 10.904 7.288 10.712C7.096 10.5207 7 10.2833 7 10C7 9.71667 7.096 9.479 7.288 9.287C7.47933 9.09567 7.71667 9 8 9H9.625C9.80833 9 9.98333 9.05 10.15 9.15C10.3167 9.25 10.4417 9.39167 10.525 9.575L14.4956 17.8862C14.5289 17.9557 14.5991 18 14.6761 18H21.55L25.125 11.525C25.2083 11.3583 25.3293 11.229 25.488 11.137C25.646 11.0457 25.8167 11 26 11C26.3833 11 26.671 11.1667 26.863 11.5C27.0543 11.8333 27.0583 12.1667 26.875 12.5L23.3 18.95C23.1167 19.2833 22.875 19.5417 22.575 19.725C22.275 19.9083 21.9333 20 21.55 20H14.2183C14.1453 20 14.0782 20.0397 14.043 20.1036L13.163 21.7036C13.0897 21.8369 13.1861 22 13.3383 22H24C24.2833 22 24.5207 22.0957 24.712 22.287C24.904 22.479 25 22.7167 25 23C25 23.2833 24.904 23.5207 24.712 23.712C24.5207 23.904 24.2833 24 24 24H13Z" fill="black"/>
</svg>
