<svg width="36" height="36" viewBox="0 0 36 36" fill="none" xmlns="http://www.w3.org/2000/svg">
<circle cx="17.9267" cy="17.9267" r="17.9267" fill="#FFCB45"/>
<path d="M17.927 17.9267C20.4021 17.9267 22.4087 15.9202 22.4087 13.4451C22.4087 10.9699 20.4021 8.96338 17.927 8.96338C15.4518 8.96338 13.4453 10.9699 13.4453 13.4451C13.4453 15.9202 15.4518 17.9267 17.927 17.9267Z" stroke="black" stroke-width="2.10902"/>
<path d="M22.4289 20.1675H22.745C23.4014 20.1677 24.0352 20.3922 24.5273 20.7988C25.0194 21.2054 25.3358 21.7662 25.4172 22.3758L25.7683 25.001C25.7999 25.2375 25.7774 25.4775 25.7022 25.7052C25.6271 25.933 25.5011 26.1431 25.3325 26.3218C25.1639 26.5004 24.9567 26.6435 24.7245 26.7414C24.4924 26.8394 24.2406 26.89 23.9859 26.89H11.8926C11.6379 26.89 11.3861 26.8394 11.154 26.7414C10.9218 26.6435 10.7146 26.5004 10.546 26.3218C10.3774 26.1431 10.2514 25.933 10.1763 25.7052C10.1011 25.4775 10.0786 25.2375 10.1102 25.001L10.4604 22.3758C10.5418 21.7659 10.8585 21.2049 11.351 20.7982C11.8434 20.3916 12.4776 20.1672 13.1344 20.1675H13.4496" stroke="black" stroke-width="2.10902" stroke-linecap="round" stroke-linejoin="round"/>
</svg>
